<mxfile host="Electron" agent="Mozilla/5.0 (Windows NT 10.0; Win64; x64) AppleWebKit/537.36 (KHTML, like Gecko) draw.io/24.7.5 Chrome/126.0.6478.183 Electron/31.3.0 Safari/537.36" version="24.7.5">
  <diagram name="Use Case Diagram" id="FgglNel2U1L5TTHVHAgJ">
    <mxGraphModel dx="2449" dy="1263" grid="0" gridSize="10" guides="1" tooltips="1" connect="1" arrows="1" fold="1" page="0" pageScale="1" pageWidth="850" pageHeight="1100" math="0" shadow="0">
      <root>
        <mxCell id="0" />
        <mxCell id="1" parent="0" />
        <mxCell id="YS5-fEkslZxsQK353Ww7-88" value="" style="rounded=0;whiteSpace=wrap;html=1;fillColor=none;" parent="1" vertex="1">
          <mxGeometry x="226" y="63" width="707" height="1024" as="geometry" />
        </mxCell>
        <mxCell id="b4xgwTWH8p54jYo2uctj-25" value="&lt;font style=&quot;font-size: 14px;&quot;&gt;Report Complaint&lt;/font&gt;" style="ellipse;whiteSpace=wrap;html=1;fillColor=none;strokeWidth=2;" parent="1" vertex="1">
          <mxGeometry x="324" y="155" width="120" height="80" as="geometry" />
        </mxCell>
        <mxCell id="YS5-fEkslZxsQK353Ww7-9" value="&lt;font style=&quot;font-size: 14px;&quot;&gt;Forward Complaint In Concerned Department&lt;/font&gt;" style="ellipse;whiteSpace=wrap;html=1;fillColor=none;strokeWidth=2;" parent="1" vertex="1">
          <mxGeometry x="588" y="106" width="166" height="92" as="geometry" />
        </mxCell>
        <mxCell id="YS5-fEkslZxsQK353Ww7-10" value="&lt;font style=&quot;font-size: 14px;&quot;&gt;Highlight Urgent Complaint&lt;/font&gt;" style="ellipse;whiteSpace=wrap;html=1;fillColor=none;strokeWidth=2;" parent="1" vertex="1">
          <mxGeometry x="629" y="213" width="129" height="81" as="geometry" />
        </mxCell>
        <mxCell id="YS5-fEkslZxsQK353Ww7-11" value="&lt;font style=&quot;font-size: 14px;&quot;&gt;&amp;lt;&amp;lt;include&amp;gt;&amp;gt;&lt;/font&gt;" style="html=1;verticalAlign=bottom;labelBackgroundColor=none;endArrow=open;endFill=0;dashed=1;rounded=0;fontSize=12;strokeWidth=2;exitX=1;exitY=0;exitDx=0;exitDy=0;entryX=0;entryY=0.629;entryDx=0;entryDy=0;entryPerimeter=0;" parent="1" source="b4xgwTWH8p54jYo2uctj-25" target="YS5-fEkslZxsQK353Ww7-9" edge="1">
          <mxGeometry width="160" relative="1" as="geometry">
            <mxPoint x="474" y="258" as="sourcePoint" />
            <mxPoint x="634" y="258" as="targetPoint" />
          </mxGeometry>
        </mxCell>
        <mxCell id="YS5-fEkslZxsQK353Ww7-13" value="&amp;lt;&amp;lt;extend&amp;gt;&amp;gt;" style="edgeStyle=none;html=1;startArrow=open;endArrow=none;startSize=12;verticalAlign=bottom;dashed=1;labelBackgroundColor=none;rounded=0;fontSize=14;strokeWidth=2;exitX=1;exitY=1;exitDx=0;exitDy=0;" parent="1" source="b4xgwTWH8p54jYo2uctj-25" target="YS5-fEkslZxsQK353Ww7-10" edge="1">
          <mxGeometry width="160" relative="1" as="geometry">
            <mxPoint x="343" y="476" as="sourcePoint" />
            <mxPoint x="503" y="476" as="targetPoint" />
          </mxGeometry>
        </mxCell>
        <mxCell id="YS5-fEkslZxsQK353Ww7-14" value="&lt;font style=&quot;font-size: 14px;&quot;&gt;Track Complaint History&lt;/font&gt;" style="ellipse;whiteSpace=wrap;html=1;fillColor=none;strokeWidth=2;" parent="1" vertex="1">
          <mxGeometry x="491.5" y="262" width="119" height="65" as="geometry" />
        </mxCell>
        <mxCell id="YS5-fEkslZxsQK353Ww7-15" value="&lt;font style=&quot;font-size: 14px;&quot;&gt;View Representative Stats&lt;/font&gt;" style="ellipse;whiteSpace=wrap;html=1;fillColor=none;strokeWidth=2;" parent="1" vertex="1">
          <mxGeometry x="406" y="323" width="120" height="80" as="geometry" />
        </mxCell>
        <mxCell id="YS5-fEkslZxsQK353Ww7-16" value="&lt;font style=&quot;font-size: 14px;&quot;&gt;Participate in Surveys&lt;/font&gt;" style="ellipse;whiteSpace=wrap;html=1;fillColor=none;strokeWidth=2;" parent="1" vertex="1">
          <mxGeometry x="521" y="389" width="120" height="80" as="geometry" />
        </mxCell>
        <mxCell id="YS5-fEkslZxsQK353Ww7-17" value="&lt;font style=&quot;font-size: 14px;&quot;&gt;Attend virtual Meetups&lt;/font&gt;" style="ellipse;whiteSpace=wrap;html=1;fillColor=none;strokeWidth=2;" parent="1" vertex="1">
          <mxGeometry x="655" y="466" width="120" height="80" as="geometry" />
        </mxCell>
        <mxCell id="YS5-fEkslZxsQK353Ww7-18" value="&lt;font style=&quot;font-size: 14px;&quot;&gt;Provide Feedback&lt;/font&gt;" style="ellipse;whiteSpace=wrap;html=1;fillColor=none;strokeWidth=2;" parent="1" vertex="1">
          <mxGeometry x="523" y="495" width="120" height="80" as="geometry" />
        </mxCell>
        <mxCell id="YS5-fEkslZxsQK353Ww7-20" value="" style="endArrow=classic;html=1;rounded=0;strokeWidth=2;exitX=1;exitY=0.5;exitDx=0;exitDy=0;entryX=0;entryY=0.5;entryDx=0;entryDy=0;" parent="1" source="YS5-fEkslZxsQK353Ww7-22" target="b4xgwTWH8p54jYo2uctj-25" edge="1">
          <mxGeometry width="50" height="50" relative="1" as="geometry">
            <mxPoint x="398" y="483" as="sourcePoint" />
            <mxPoint x="448" y="433" as="targetPoint" />
          </mxGeometry>
        </mxCell>
        <mxCell id="YS5-fEkslZxsQK353Ww7-25" value="" style="endArrow=classic;html=1;rounded=0;strokeWidth=2;exitX=1;exitY=0.5;exitDx=0;exitDy=0;" parent="1" source="YS5-fEkslZxsQK353Ww7-22" target="YS5-fEkslZxsQK353Ww7-14" edge="1">
          <mxGeometry width="50" height="50" relative="1" as="geometry">
            <mxPoint x="188" y="441" as="sourcePoint" />
            <mxPoint x="381" y="326" as="targetPoint" />
          </mxGeometry>
        </mxCell>
        <mxCell id="YS5-fEkslZxsQK353Ww7-29" value="" style="endArrow=classic;html=1;rounded=0;strokeWidth=2;entryX=0.007;entryY=0.417;entryDx=0;entryDy=0;entryPerimeter=0;exitX=1;exitY=0.5;exitDx=0;exitDy=0;" parent="1" target="YS5-fEkslZxsQK353Ww7-15" edge="1" source="YS5-fEkslZxsQK353Ww7-22">
          <mxGeometry width="50" height="50" relative="1" as="geometry">
            <mxPoint x="179" y="430" as="sourcePoint" />
            <mxPoint x="315" y="400" as="targetPoint" />
          </mxGeometry>
        </mxCell>
        <mxCell id="YS5-fEkslZxsQK353Ww7-30" value="" style="endArrow=classic;html=1;rounded=0;strokeWidth=2;entryX=0;entryY=0.5;entryDx=0;entryDy=0;exitX=1;exitY=0.5;exitDx=0;exitDy=0;" parent="1" source="YS5-fEkslZxsQK353Ww7-22" target="YS5-fEkslZxsQK353Ww7-16" edge="1">
          <mxGeometry width="50" height="50" relative="1" as="geometry">
            <mxPoint x="189" y="440" as="sourcePoint" />
            <mxPoint x="523" y="439" as="targetPoint" />
          </mxGeometry>
        </mxCell>
        <mxCell id="YS5-fEkslZxsQK353Ww7-31" value="" style="endArrow=classic;html=1;rounded=0;strokeWidth=2;entryX=0;entryY=0.5;entryDx=0;entryDy=0;exitX=1;exitY=0.5;exitDx=0;exitDy=0;" parent="1" source="YS5-fEkslZxsQK353Ww7-22" target="YS5-fEkslZxsQK353Ww7-17" edge="1">
          <mxGeometry width="50" height="50" relative="1" as="geometry">
            <mxPoint x="188" y="441" as="sourcePoint" />
            <mxPoint x="412" y="486" as="targetPoint" />
          </mxGeometry>
        </mxCell>
        <mxCell id="YS5-fEkslZxsQK353Ww7-32" value="" style="endArrow=classic;html=1;rounded=0;strokeWidth=2;exitX=1;exitY=0.5;exitDx=0;exitDy=0;entryX=0;entryY=0;entryDx=0;entryDy=0;" parent="1" source="YS5-fEkslZxsQK353Ww7-22" target="YS5-fEkslZxsQK353Ww7-18" edge="1">
          <mxGeometry width="50" height="50" relative="1" as="geometry">
            <mxPoint x="188" y="441" as="sourcePoint" />
            <mxPoint x="497" y="552" as="targetPoint" />
          </mxGeometry>
        </mxCell>
        <mxCell id="YS5-fEkslZxsQK353Ww7-33" value="&lt;font style=&quot;font-size: 14px;&quot;&gt;Create Surveys&lt;/font&gt;" style="ellipse;whiteSpace=wrap;html=1;fillColor=none;strokeWidth=2;" parent="1" vertex="1">
          <mxGeometry x="301" y="605" width="120" height="80" as="geometry" />
        </mxCell>
        <mxCell id="YS5-fEkslZxsQK353Ww7-42" value="" style="group" parent="1" vertex="1" connectable="0">
          <mxGeometry x="78" y="303" width="50" height="60" as="geometry" />
        </mxCell>
        <mxCell id="YS5-fEkslZxsQK353Ww7-1" value="&lt;b&gt;Constituent&lt;/b&gt;" style="shape=umlActor;verticalLabelPosition=bottom;verticalAlign=top;html=1;outlineConnect=0;container=0;" parent="YS5-fEkslZxsQK353Ww7-42" vertex="1">
          <mxGeometry width="30" height="60" as="geometry" />
        </mxCell>
        <mxCell id="YS5-fEkslZxsQK353Ww7-22" value="" style="shape=ellipse;html=1;sketch=0;strokeWidth=2;strokeColor=none;container=0;" parent="YS5-fEkslZxsQK353Ww7-42" vertex="1">
          <mxGeometry x="40" y="23" width="10" height="10" as="geometry" />
        </mxCell>
        <mxCell id="YS5-fEkslZxsQK353Ww7-43" value="" style="group;fillColor=none;fillStyle=solid;" parent="1" vertex="1" connectable="0">
          <mxGeometry x="79" y="729" width="50" height="60" as="geometry" />
        </mxCell>
        <mxCell id="YS5-fEkslZxsQK353Ww7-44" value="&lt;b&gt;Representative&lt;/b&gt;" style="shape=umlActor;verticalLabelPosition=bottom;verticalAlign=top;html=1;outlineConnect=0;container=0;" parent="YS5-fEkslZxsQK353Ww7-43" vertex="1">
          <mxGeometry width="30" height="60" as="geometry" />
        </mxCell>
        <mxCell id="YS5-fEkslZxsQK353Ww7-45" value="" style="shape=ellipse;html=1;sketch=0;strokeWidth=2;strokeColor=none;container=0;" parent="YS5-fEkslZxsQK353Ww7-43" vertex="1">
          <mxGeometry x="40" y="23" width="10" height="10" as="geometry" />
        </mxCell>
        <mxCell id="YS5-fEkslZxsQK353Ww7-47" value="" style="endArrow=classic;html=1;rounded=0;strokeWidth=2;exitX=1;exitY=0.5;exitDx=0;exitDy=0;entryX=0;entryY=1;entryDx=0;entryDy=0;" parent="1" source="YS5-fEkslZxsQK353Ww7-45" target="YS5-fEkslZxsQK353Ww7-33" edge="1">
          <mxGeometry width="50" height="50" relative="1" as="geometry">
            <mxPoint x="188" y="781" as="sourcePoint" />
            <mxPoint x="396" y="902" as="targetPoint" />
          </mxGeometry>
        </mxCell>
        <mxCell id="YS5-fEkslZxsQK353Ww7-48" value="&lt;font style=&quot;font-size: 14px;&quot;&gt;Compute Survey Result&lt;/font&gt;" style="ellipse;whiteSpace=wrap;html=1;fillColor=none;strokeWidth=2;" parent="1" vertex="1">
          <mxGeometry x="444" y="596" width="120" height="80" as="geometry" />
        </mxCell>
        <mxCell id="YS5-fEkslZxsQK353Ww7-50" value="&lt;font style=&quot;font-size: 14px;&quot;&gt;Arrange virtual Meetups&lt;/font&gt;" style="ellipse;whiteSpace=wrap;html=1;fillColor=none;strokeWidth=2;" parent="1" vertex="1">
          <mxGeometry x="526" y="680" width="120" height="80" as="geometry" />
        </mxCell>
        <mxCell id="YS5-fEkslZxsQK353Ww7-51" value="" style="endArrow=classic;html=1;rounded=0;strokeWidth=2;exitX=1;exitY=0.5;exitDx=0;exitDy=0;entryX=0.013;entryY=0.552;entryDx=0;entryDy=0;entryPerimeter=0;" parent="1" source="YS5-fEkslZxsQK353Ww7-45" target="YS5-fEkslZxsQK353Ww7-50" edge="1">
          <mxGeometry width="50" height="50" relative="1" as="geometry">
            <mxPoint x="188" y="931" as="sourcePoint" />
            <mxPoint x="315" y="826" as="targetPoint" />
          </mxGeometry>
        </mxCell>
        <mxCell id="YS5-fEkslZxsQK353Ww7-54" value="&lt;span style=&quot;font-size: 14px;&quot;&gt;Manage Assistant&lt;/span&gt;" style="ellipse;whiteSpace=wrap;html=1;fillColor=none;strokeWidth=2;" parent="1" vertex="1">
          <mxGeometry x="432" y="798" width="109" height="66" as="geometry" />
        </mxCell>
        <mxCell id="YS5-fEkslZxsQK353Ww7-57" value="&lt;font style=&quot;font-size: 14px;&quot;&gt;Post Event Calender&lt;/font&gt;" style="ellipse;whiteSpace=wrap;html=1;fillColor=none;strokeWidth=2;" parent="1" vertex="1">
          <mxGeometry x="669" y="723" width="120" height="80" as="geometry" />
        </mxCell>
        <mxCell id="YS5-fEkslZxsQK353Ww7-58" value="&lt;font style=&quot;font-size: 14px;&quot;&gt;Run Awarenes Compaign&lt;/font&gt;" style="ellipse;whiteSpace=wrap;html=1;fillColor=none;strokeWidth=2;" parent="1" vertex="1">
          <mxGeometry x="553" y="780" width="120" height="80" as="geometry" />
        </mxCell>
        <mxCell id="YS5-fEkslZxsQK353Ww7-59" value="" style="endArrow=classic;html=1;rounded=0;strokeWidth=2;exitX=1;exitY=0.5;exitDx=0;exitDy=0;entryX=0.014;entryY=0.621;entryDx=0;entryDy=0;entryPerimeter=0;" parent="1" source="YS5-fEkslZxsQK353Ww7-45" target="YS5-fEkslZxsQK353Ww7-57" edge="1">
          <mxGeometry width="50" height="50" relative="1" as="geometry">
            <mxPoint x="182" y="921" as="sourcePoint" />
            <mxPoint x="408" y="890" as="targetPoint" />
          </mxGeometry>
        </mxCell>
        <mxCell id="YS5-fEkslZxsQK353Ww7-60" value="" style="endArrow=classic;html=1;rounded=0;strokeWidth=2;exitX=1;exitY=0.5;exitDx=0;exitDy=0;entryX=0;entryY=0;entryDx=0;entryDy=0;" parent="1" source="YS5-fEkslZxsQK353Ww7-45" target="YS5-fEkslZxsQK353Ww7-58" edge="1">
          <mxGeometry width="50" height="50" relative="1" as="geometry">
            <mxPoint x="188" y="951" as="sourcePoint" />
            <mxPoint x="418" y="904" as="targetPoint" />
          </mxGeometry>
        </mxCell>
        <mxCell id="YS5-fEkslZxsQK353Ww7-64" value="&lt;span style=&quot;font-size: 14px;&quot;&gt;View Complaint Status&lt;/span&gt;" style="ellipse;whiteSpace=wrap;html=1;fillColor=none;strokeWidth=2;" parent="1" vertex="1">
          <mxGeometry x="293" y="849" width="120" height="80" as="geometry" />
        </mxCell>
        <mxCell id="YS5-fEkslZxsQK353Ww7-65" value="" style="endArrow=classic;html=1;rounded=0;strokeWidth=2;exitX=1;exitY=0.5;exitDx=0;exitDy=0;entryX=0;entryY=0;entryDx=0;entryDy=0;" parent="1" target="YS5-fEkslZxsQK353Ww7-54" edge="1" source="YS5-fEkslZxsQK353Ww7-45">
          <mxGeometry width="50" height="50" relative="1" as="geometry">
            <mxPoint x="183.00000000000006" y="921.0000000000001" as="sourcePoint" />
            <mxPoint x="414" y="990" as="targetPoint" />
          </mxGeometry>
        </mxCell>
        <mxCell id="YS5-fEkslZxsQK353Ww7-66" value="" style="endArrow=classic;html=1;rounded=0;strokeWidth=2;exitX=1;exitY=0.5;exitDx=0;exitDy=0;entryX=0;entryY=0;entryDx=0;entryDy=0;" parent="1" source="YS5-fEkslZxsQK353Ww7-45" target="YS5-fEkslZxsQK353Ww7-64" edge="1">
          <mxGeometry width="50" height="50" relative="1" as="geometry">
            <mxPoint x="193.00000000000006" y="931.0000000000001" as="sourcePoint" />
            <mxPoint x="534" y="1053" as="targetPoint" />
          </mxGeometry>
        </mxCell>
        <mxCell id="YS5-fEkslZxsQK353Ww7-69" value="&lt;span style=&quot;font-size: 14px;&quot;&gt;View Complaints&lt;/span&gt;" style="ellipse;whiteSpace=wrap;html=1;fillColor=none;strokeWidth=2;" parent="1" vertex="1">
          <mxGeometry x="479" y="872" width="109" height="59" as="geometry" />
        </mxCell>
        <mxCell id="YS5-fEkslZxsQK353Ww7-75" value="&lt;font style=&quot;font-size: 14px;&quot;&gt;Notify Constituent&lt;/font&gt;" style="ellipse;whiteSpace=wrap;html=1;fillColor=none;strokeWidth=2;" parent="1" vertex="1">
          <mxGeometry x="652" y="937" width="120" height="80" as="geometry" />
        </mxCell>
        <mxCell id="YS5-fEkslZxsQK353Ww7-86" value="" style="endArrow=classic;html=1;rounded=0;strokeWidth=2;exitX=1;exitY=0.5;exitDx=0;exitDy=0;" parent="1" source="ILpJxY8CLq0BZr6BMf7_-14" target="YS5-fEkslZxsQK353Ww7-64" edge="1">
          <mxGeometry width="50" height="50" relative="1" as="geometry">
            <mxPoint x="174" y="1186.9999999999998" as="sourcePoint" />
            <mxPoint x="497" y="1141" as="targetPoint" />
          </mxGeometry>
        </mxCell>
        <mxCell id="YS5-fEkslZxsQK353Ww7-89" value="&amp;lt;&amp;lt;actor&amp;gt;&amp;gt;&lt;br&gt;&lt;br&gt;&lt;b&gt;Video Conferencing Service&lt;/b&gt;" style="html=1;align=center;verticalAlign=middle;dashed=0;whiteSpace=wrap;" parent="1" vertex="1">
          <mxGeometry x="1054" y="661" width="172" height="52" as="geometry" />
        </mxCell>
        <mxCell id="YS5-fEkslZxsQK353Ww7-91" value="" style="endArrow=classic;html=1;rounded=0;strokeWidth=2;exitX=0;exitY=0.5;exitDx=0;exitDy=0;entryX=0.992;entryY=0.375;entryDx=0;entryDy=0;entryPerimeter=0;" parent="1" source="YS5-fEkslZxsQK353Ww7-89" target="YS5-fEkslZxsQK353Ww7-50" edge="1">
          <mxGeometry width="50" height="50" relative="1" as="geometry">
            <mxPoint x="778" y="601" as="sourcePoint" />
            <mxPoint x="986" y="722" as="targetPoint" />
          </mxGeometry>
        </mxCell>
        <mxCell id="LRH05sEO5IdcGObicF3C-1" value="" style="endArrow=classic;html=1;rounded=0;strokeWidth=2;exitX=1;exitY=0.5;exitDx=0;exitDy=0;entryX=0;entryY=0;entryDx=0;entryDy=0;" parent="1" source="YS5-fEkslZxsQK353Ww7-45" target="YS5-fEkslZxsQK353Ww7-69" edge="1">
          <mxGeometry width="50" height="50" relative="1" as="geometry">
            <mxPoint x="188" y="1093" as="sourcePoint" />
            <mxPoint x="495" y="1131" as="targetPoint" />
          </mxGeometry>
        </mxCell>
        <mxCell id="ILpJxY8CLq0BZr6BMf7_-1" value="&lt;font style=&quot;font-size: 14px;&quot;&gt;Track Complaint Status&lt;/font&gt;" style="ellipse;whiteSpace=wrap;html=1;fillColor=none;strokeWidth=2;" vertex="1" parent="1">
          <mxGeometry x="268" y="234" width="135" height="69" as="geometry" />
        </mxCell>
        <mxCell id="ILpJxY8CLq0BZr6BMf7_-2" value="" style="endArrow=classic;html=1;rounded=0;strokeWidth=2;exitX=1;exitY=0.5;exitDx=0;exitDy=0;entryX=0.046;entryY=0.719;entryDx=0;entryDy=0;entryPerimeter=0;" edge="1" parent="1" source="YS5-fEkslZxsQK353Ww7-22" target="ILpJxY8CLq0BZr6BMf7_-1">
          <mxGeometry width="50" height="50" relative="1" as="geometry">
            <mxPoint x="188" y="441" as="sourcePoint" />
            <mxPoint x="334" y="205" as="targetPoint" />
          </mxGeometry>
        </mxCell>
        <mxCell id="ILpJxY8CLq0BZr6BMf7_-3" value="&lt;font style=&quot;font-size: 14px;&quot;&gt;&amp;lt;&amp;lt;include&amp;gt;&amp;gt;&lt;/font&gt;" style="html=1;verticalAlign=bottom;labelBackgroundColor=none;endArrow=open;endFill=0;dashed=1;rounded=0;fontSize=12;strokeWidth=2;exitX=1;exitY=0.5;exitDx=0;exitDy=0;entryX=0;entryY=0.5;entryDx=0;entryDy=0;" edge="1" parent="1" source="YS5-fEkslZxsQK353Ww7-15" target="ILpJxY8CLq0BZr6BMf7_-4">
          <mxGeometry width="160" relative="1" as="geometry">
            <mxPoint x="506" y="347" as="sourcePoint" />
            <mxPoint x="585" y="356" as="targetPoint" />
          </mxGeometry>
        </mxCell>
        <mxCell id="ILpJxY8CLq0BZr6BMf7_-4" value="&lt;font style=&quot;font-size: 14px;&quot;&gt;Compute Stats&lt;/font&gt;" style="ellipse;whiteSpace=wrap;html=1;fillColor=none;strokeWidth=2;" vertex="1" parent="1">
          <mxGeometry x="687" y="341" width="119" height="65" as="geometry" />
        </mxCell>
        <mxCell id="ILpJxY8CLq0BZr6BMf7_-5" value="&lt;font style=&quot;font-size: 14px;&quot;&gt;View Awarenes Compaign&lt;/font&gt;" style="ellipse;whiteSpace=wrap;html=1;fillColor=none;strokeWidth=2;" vertex="1" parent="1">
          <mxGeometry x="391" y="493" width="120" height="80" as="geometry" />
        </mxCell>
        <mxCell id="ILpJxY8CLq0BZr6BMf7_-6" value="" style="endArrow=classic;html=1;rounded=0;strokeWidth=2;exitX=1;exitY=0.5;exitDx=0;exitDy=0;entryX=0;entryY=0;entryDx=0;entryDy=0;" edge="1" parent="1" source="YS5-fEkslZxsQK353Ww7-22" target="ILpJxY8CLq0BZr6BMf7_-5">
          <mxGeometry width="50" height="50" relative="1" as="geometry">
            <mxPoint x="188" y="441" as="sourcePoint" />
            <mxPoint x="487" y="515" as="targetPoint" />
          </mxGeometry>
        </mxCell>
        <mxCell id="ILpJxY8CLq0BZr6BMf7_-7" value="&lt;font style=&quot;font-size: 14px;&quot;&gt;View Event Calender&lt;/font&gt;" style="ellipse;whiteSpace=wrap;html=1;fillColor=none;strokeWidth=2;" vertex="1" parent="1">
          <mxGeometry x="261" y="487" width="120" height="80" as="geometry" />
        </mxCell>
        <mxCell id="ILpJxY8CLq0BZr6BMf7_-8" value="" style="endArrow=classic;html=1;rounded=0;strokeWidth=2;exitX=1;exitY=0.5;exitDx=0;exitDy=0;entryX=0;entryY=0;entryDx=0;entryDy=0;" edge="1" parent="1" source="YS5-fEkslZxsQK353Ww7-22" target="ILpJxY8CLq0BZr6BMf7_-7">
          <mxGeometry width="50" height="50" relative="1" as="geometry">
            <mxPoint x="188" y="771" as="sourcePoint" />
            <mxPoint x="315" y="666" as="targetPoint" />
          </mxGeometry>
        </mxCell>
        <mxCell id="ILpJxY8CLq0BZr6BMf7_-9" value="" style="endArrow=classic;html=1;rounded=0;strokeWidth=2;exitX=1;exitY=0.5;exitDx=0;exitDy=0;entryX=0;entryY=1;entryDx=0;entryDy=0;" edge="1" parent="1" source="YS5-fEkslZxsQK353Ww7-45" target="YS5-fEkslZxsQK353Ww7-48">
          <mxGeometry width="50" height="50" relative="1" as="geometry">
            <mxPoint x="164" y="743" as="sourcePoint" />
            <mxPoint x="553" y="635" as="targetPoint" />
          </mxGeometry>
        </mxCell>
        <mxCell id="ILpJxY8CLq0BZr6BMf7_-10" value="&lt;font style=&quot;font-size: 14px;&quot;&gt;View Survey Result&lt;/font&gt;" style="ellipse;whiteSpace=wrap;html=1;fillColor=none;strokeWidth=2;" vertex="1" parent="1">
          <mxGeometry x="594" y="596" width="120" height="80" as="geometry" />
        </mxCell>
        <mxCell id="ILpJxY8CLq0BZr6BMf7_-11" value="" style="endArrow=classic;html=1;rounded=0;strokeWidth=2;exitX=1;exitY=0.5;exitDx=0;exitDy=0;entryX=0;entryY=1;entryDx=0;entryDy=0;" edge="1" parent="1" source="YS5-fEkslZxsQK353Ww7-45" target="ILpJxY8CLq0BZr6BMf7_-10">
          <mxGeometry width="50" height="50" relative="1" as="geometry">
            <mxPoint x="164" y="783" as="sourcePoint" />
            <mxPoint x="472" y="674" as="targetPoint" />
          </mxGeometry>
        </mxCell>
        <mxCell id="ILpJxY8CLq0BZr6BMf7_-12" value="" style="group;fillColor=none;fillStyle=solid;" vertex="1" connectable="0" parent="1">
          <mxGeometry x="72" y="924" width="50" height="60" as="geometry" />
        </mxCell>
        <mxCell id="ILpJxY8CLq0BZr6BMf7_-13" value="&lt;b&gt;Department Complaint Handler&lt;/b&gt;" style="shape=umlActor;verticalLabelPosition=bottom;verticalAlign=top;html=1;outlineConnect=0;container=0;" vertex="1" parent="ILpJxY8CLq0BZr6BMf7_-12">
          <mxGeometry width="30" height="60" as="geometry" />
        </mxCell>
        <mxCell id="ILpJxY8CLq0BZr6BMf7_-14" value="" style="shape=ellipse;html=1;sketch=0;strokeWidth=2;strokeColor=none;container=0;" vertex="1" parent="ILpJxY8CLq0BZr6BMf7_-12">
          <mxGeometry x="40" y="23" width="10" height="10" as="geometry" />
        </mxCell>
        <mxCell id="ILpJxY8CLq0BZr6BMf7_-15" value="&lt;span style=&quot;font-size: 14px;&quot;&gt;Update Complaint Status&lt;/span&gt;" style="ellipse;whiteSpace=wrap;html=1;fillColor=none;strokeWidth=2;" vertex="1" parent="1">
          <mxGeometry x="373" y="935" width="144" height="78" as="geometry" />
        </mxCell>
        <mxCell id="ILpJxY8CLq0BZr6BMf7_-16" value="" style="endArrow=classic;html=1;rounded=0;strokeWidth=2;exitX=1;exitY=0.5;exitDx=0;exitDy=0;entryX=0;entryY=1;entryDx=0;entryDy=0;" edge="1" parent="1" source="ILpJxY8CLq0BZr6BMf7_-14" target="YS5-fEkslZxsQK353Ww7-69">
          <mxGeometry width="50" height="50" relative="1" as="geometry">
            <mxPoint x="165" y="1062" as="sourcePoint" />
            <mxPoint x="325" y="930" as="targetPoint" />
          </mxGeometry>
        </mxCell>
        <mxCell id="ILpJxY8CLq0BZr6BMf7_-17" value="" style="endArrow=classic;html=1;rounded=0;strokeWidth=2;exitX=1;exitY=0.5;exitDx=0;exitDy=0;entryX=0;entryY=0.5;entryDx=0;entryDy=0;" edge="1" parent="1" source="ILpJxY8CLq0BZr6BMf7_-14" target="ILpJxY8CLq0BZr6BMf7_-15">
          <mxGeometry width="50" height="50" relative="1" as="geometry">
            <mxPoint x="165" y="1062" as="sourcePoint" />
            <mxPoint x="489" y="912" as="targetPoint" />
          </mxGeometry>
        </mxCell>
        <mxCell id="ILpJxY8CLq0BZr6BMf7_-18" style="edgeStyle=orthogonalEdgeStyle;rounded=0;orthogonalLoop=1;jettySize=auto;html=1;exitX=0.5;exitY=1;exitDx=0;exitDy=0;" edge="1" parent="1" source="YS5-fEkslZxsQK353Ww7-75" target="YS5-fEkslZxsQK353Ww7-75">
          <mxGeometry relative="1" as="geometry" />
        </mxCell>
        <mxCell id="ILpJxY8CLq0BZr6BMf7_-19" value="&lt;font style=&quot;font-size: 14px;&quot;&gt;&amp;lt;&amp;lt;include&amp;gt;&amp;gt;&lt;/font&gt;" style="html=1;verticalAlign=bottom;labelBackgroundColor=none;endArrow=open;endFill=0;dashed=1;rounded=0;fontSize=12;strokeWidth=2;exitX=1;exitY=0.5;exitDx=0;exitDy=0;entryX=0;entryY=0.5;entryDx=0;entryDy=0;" edge="1" parent="1" source="ILpJxY8CLq0BZr6BMf7_-15" target="YS5-fEkslZxsQK353Ww7-75">
          <mxGeometry width="160" relative="1" as="geometry">
            <mxPoint x="576" y="1013" as="sourcePoint" />
            <mxPoint x="703" y="1003" as="targetPoint" />
          </mxGeometry>
        </mxCell>
        <mxCell id="ILpJxY8CLq0BZr6BMf7_-20" value="&lt;font style=&quot;font-size: 14px;&quot;&gt;Record Survey Result&lt;/font&gt;" style="ellipse;whiteSpace=wrap;html=1;fillColor=none;strokeWidth=2;" vertex="1" parent="1">
          <mxGeometry x="765" y="406" width="129" height="81" as="geometry" />
        </mxCell>
        <mxCell id="ILpJxY8CLq0BZr6BMf7_-22" value="&lt;font style=&quot;font-size: 14px;&quot;&gt;&amp;lt;&amp;lt;include&amp;gt;&amp;gt;&lt;/font&gt;" style="html=1;verticalAlign=bottom;labelBackgroundColor=none;endArrow=open;endFill=0;dashed=1;rounded=0;fontSize=12;strokeWidth=2;exitX=1;exitY=0.5;exitDx=0;exitDy=0;entryX=0;entryY=0.5;entryDx=0;entryDy=0;" edge="1" parent="1" source="YS5-fEkslZxsQK353Ww7-16" target="ILpJxY8CLq0BZr6BMf7_-20">
          <mxGeometry width="160" relative="1" as="geometry">
            <mxPoint x="436" y="177" as="sourcePoint" />
            <mxPoint x="598" y="164" as="targetPoint" />
          </mxGeometry>
        </mxCell>
      </root>
    </mxGraphModel>
  </diagram>
</mxfile>
